<svg width="1301" height="1302" xmlns="http://www.w3.org/2000/svg" xmlns:xlink="http://www.w3.org/1999/xlink" xml:space="preserve" overflow="hidden"><defs><clipPath id="clip0"><rect x="1549" y="586" width="1301" height="1302"/></clipPath><clipPath id="clip1"><rect x="1549" y="586" width="1301" height="1302"/></clipPath><linearGradient x1="2200" y1="588" x2="2200" y2="1887" gradientUnits="userSpaceOnUse" spreadMethod="reflect" id="fill2"><stop offset="0" stop-color="#0018A8" stop-opacity="1"/><stop offset="0.3" stop-color="#0018A8" stop-opacity="1"/><stop offset="0.7" stop-color="#0070C0" stop-opacity="1"/><stop offset="1" stop-color="#0070C0" stop-opacity="1"/></linearGradient></defs><g clip-path="url(#clip0)" transform="translate(-1549 -586)"><g clip-path="url(#clip1)"><path d="M1550 984.48C1550 765.51 1727.51 588 1946.48 588L2453.52 588C2672.49 588 2850 765.51 2850 984.48L2850 1490.52C2850 1709.49 2672.49 1887 2453.52 1887L1946.48 1887C1727.51 1887 1550 1709.49 1550 1490.52Z" fill="url(#fill2)" fill-rule="evenodd"/><text fill="#FFFFFF" fill-opacity="1" font-family="Johnston ITC Std Medium,Johnston ITC Std Medium_MSFontService,sans-serif" font-style="normal" font-variant="normal" font-weight="500" font-stretch="normal" font-size="303" text-anchor="start" direction="ltr" writing-mode="lr-tb" unicode-bidi="normal" text-decoration="none" transform="matrix(1 0 0 1 1782.57 1156)">jAMiN</text><text fill="#FFFFFF" fill-opacity="1" font-family="Johnston ITC Std Medium,Johnston ITC Std Medium_MSFontService,sans-serif" font-style="normal" font-variant="normal" font-weight="500" font-stretch="normal" font-size="303" text-anchor="start" direction="ltr" writing-mode="lr-tb" unicode-bidi="normal" text-decoration="none" transform="matrix(1 0 0 1 1782.57 1519)">ChAN</text><rect x="2579" y="783" width="70.9998" height="70.9998" fill="#FFFFFF" fill-opacity="1"/></g></g></svg>